<svg width="650" height="32" viewBox="0 0 650 32" fill="none" xmlns="http://www.w3.org/2000/svg">
    <g filter="url(#filter0_di_1_198)">
    <path d="M0 5.78125C0 2.58835 2.58835 0 5.78125 0H650V31H0V5.78125Z" fill="white"/>
    <g clip-path="url(#clip0_1_198)">
    <path d="M88.6058 19.0711L84.8003 15.3567C84.7091 15.2655 84.6611 15.1552 84.6611 15.0352C84.6611 14.9104 84.7139 14.7905 84.8051 14.7137L88.6058 10.9945C88.6874 10.9129 88.793 10.865 88.9177 10.865C89.1673 10.865 89.3544 11.0569 89.3544 11.3065C89.3544 11.4216 89.3065 11.5368 89.2297 11.6184L85.7361 15.0352L89.2297 18.452C89.3065 18.5336 89.3544 18.644 89.3544 18.7639C89.3544 19.0135 89.1673 19.2006 88.9177 19.2006C88.793 19.2006 88.6874 19.1526 88.6058 19.0711Z" fill="#737373"/>
    <path d="M104.176 19.2054C104.301 19.2054 104.406 19.1574 104.488 19.0759L108.293 15.3567C108.385 15.2655 108.433 15.1552 108.433 15.0352C108.433 14.9104 108.385 14.7952 108.293 14.7137L104.493 10.9993C104.406 10.9129 104.301 10.865 104.176 10.865C103.926 10.865 103.739 11.0569 103.739 11.3065C103.739 11.4216 103.787 11.5368 103.864 11.6184L107.358 15.0352L103.864 18.452C103.787 18.5336 103.739 18.644 103.739 18.7639C103.739 19.0135 103.926 19.2054 104.176 19.2054Z" fill="#BFBFBF"/>
    </g>
    <path d="M58.5755 19.4598H66.8775C67.8853 19.4598 68.3844 18.9607 68.3844 17.9721V12.1127C68.3844 11.1241 67.8853 10.625 66.8775 10.625H58.5755C57.5725 10.625 57.0686 11.1193 57.0686 12.1127V17.9721C57.0686 18.9655 57.5725 19.4598 58.5755 19.4598ZM58.5851 18.6872C58.1052 18.6872 57.8412 18.4328 57.8412 17.9337V12.1511C57.8412 11.652 58.1052 11.3977 58.5851 11.3977H60.7254V18.6872H58.5851ZM66.8679 11.3977C67.343 11.3977 67.6118 11.652 67.6118 12.1511V17.9337C67.6118 18.4328 67.343 18.6872 66.8679 18.6872H61.4788V11.3977H66.8679ZM59.7992 13.178C59.9479 13.178 60.0727 13.0485 60.0727 12.9093C60.0727 12.7653 59.9479 12.6406 59.7992 12.6406H58.7722C58.6282 12.6406 58.4987 12.7653 58.4987 12.9093C58.4987 13.0485 58.6282 13.178 58.7722 13.178H59.7992ZM59.7992 14.421C59.9479 14.421 60.0727 14.2914 60.0727 14.1474C60.0727 14.0034 59.9479 13.8835 59.7992 13.8835H58.7722C58.6282 13.8835 58.4987 14.0034 58.4987 14.1474C58.4987 14.2914 58.6282 14.421 58.7722 14.421H59.7992ZM59.7992 15.6591C59.9479 15.6591 60.0727 15.5391 60.0727 15.3951C60.0727 15.2512 59.9479 15.1264 59.7992 15.1264H58.7722C58.6282 15.1264 58.4987 15.2512 58.4987 15.3951C58.4987 15.5391 58.6282 15.6591 58.7722 15.6591H59.7992Z" fill="#737373"/>
    <g filter="url(#filter1_i_1_198)">
    <path fill-rule="evenodd" clip-rule="evenodd" d="M15.6094 18.5C17.5251 18.5 19.0781 16.947 19.0781 15.0312C19.0781 13.1155 17.5251 11.5625 15.6094 11.5625C13.6936 11.5625 12.1406 13.1155 12.1406 15.0312C12.1406 16.947 13.6936 18.5 15.6094 18.5Z" fill="#EE6A5F"/>
    </g>
    <path d="M18.9336 15.0312C18.9336 16.8672 17.4453 18.3555 15.6094 18.3555C13.7735 18.3555 12.2852 16.8672 12.2852 15.0312C12.2852 13.1953 13.7735 11.707 15.6094 11.707C17.4453 11.707 18.9336 13.1953 18.9336 15.0312Z" stroke="#CE5347" stroke-width="0.289062"/>
    <g filter="url(#filter2_i_1_198)">
    <path fill-rule="evenodd" clip-rule="evenodd" d="M27.1719 18.5C29.0876 18.5 30.6406 16.947 30.6406 15.0312C30.6406 13.1155 29.0876 11.5625 27.1719 11.5625C25.2561 11.5625 23.7031 13.1155 23.7031 15.0312C23.7031 16.947 25.2561 18.5 27.1719 18.5Z" fill="#F5BD4F"/>
    </g>
    <path d="M30.4961 15.0312C30.4961 16.8672 29.0078 18.3555 27.1719 18.3555C25.336 18.3555 23.8477 16.8672 23.8477 15.0312C23.8477 13.1953 25.336 11.707 27.1719 11.707C29.0078 11.707 30.4961 13.1953 30.4961 15.0312Z" stroke="#D6A243" stroke-width="0.289062"/>
    <g filter="url(#filter3_i_1_198)">
    <path fill-rule="evenodd" clip-rule="evenodd" d="M38.7344 18.5C40.6501 18.5 42.2031 16.947 42.2031 15.0312C42.2031 13.1155 40.6501 11.5625 38.7344 11.5625C36.8186 11.5625 35.2656 13.1155 35.2656 15.0312C35.2656 16.947 36.8186 18.5 38.7344 18.5Z" fill="#61C454"/>
    </g>
    <path d="M42.0586 15.0312C42.0586 16.8672 40.5703 18.3555 38.7344 18.3555C36.8985 18.3555 35.4102 16.8672 35.4102 15.0312C35.4102 13.1953 36.8985 11.707 38.7344 11.707C40.5703 11.707 42.0586 13.1953 42.0586 15.0312Z" stroke="#58A942" stroke-width="0.289062"/>
    <g clip-path="url(#clip1_1_198)">
    <path d="M206.102 20.0117C206.178 20.0117 206.303 19.9829 206.423 19.9157C209.154 18.3848 210.09 17.737 210.09 15.9854V12.3142C210.09 11.8104 209.874 11.652 209.466 11.4792C208.899 11.2441 207.071 10.5866 206.505 10.3899C206.375 10.3467 206.236 10.3179 206.102 10.3179C205.967 10.3179 205.828 10.3563 205.703 10.3899C205.137 10.553 203.304 11.2489 202.738 11.4792C202.335 11.6472 202.114 11.8104 202.114 12.3142V15.9854C202.114 17.737 203.054 18.38 205.78 19.9157C205.905 19.9829 206.025 20.0117 206.102 20.0117ZM206.294 11.1337C207.018 11.4216 208.424 11.9303 209.168 12.1847C209.298 12.2327 209.326 12.2998 209.326 12.463V15.8078C209.326 17.2907 208.616 17.6794 206.399 19.0279C206.26 19.1143 206.183 19.1383 206.106 19.1431V11.0905C206.154 11.0905 206.217 11.1049 206.294 11.1337Z" fill="#737373"/>
    <rect x="221" y="6.9375" width="298.312" height="16.1875" rx="3.46875" fill="black" fill-opacity="0.05"/>
    <path d="M512.226 14.7151C512.311 14.7151 512.375 14.688 512.423 14.6371L513.818 13.2347C513.879 13.1772 513.903 13.1094 513.903 13.0315C513.903 12.957 513.872 12.8824 513.818 12.8282L512.423 11.4123C512.375 11.3581 512.307 11.331 512.226 11.331C512.074 11.331 511.958 11.4529 511.958 11.6088C511.958 11.6799 511.986 11.7477 512.033 11.8018L512.937 12.6894C512.744 12.6555 512.548 12.6352 512.351 12.6352C510.692 12.6352 509.357 13.9664 509.357 15.6263C509.357 17.2895 510.692 18.6242 512.351 18.6242C514.011 18.6242 515.343 17.2895 515.343 15.6263C515.343 15.4637 515.227 15.3451 515.061 15.3451C514.902 15.3451 514.797 15.4637 514.797 15.6263C514.797 16.988 513.71 18.0788 512.351 18.0788C510.993 18.0788 509.902 16.988 509.902 15.6263C509.902 14.2679 510.993 13.1805 512.351 13.1805C512.609 13.1805 512.846 13.2009 513.049 13.2449L512.036 14.251C511.986 14.3052 511.958 14.3729 511.958 14.4441C511.958 14.5999 512.074 14.7151 512.226 14.7151Z" fill="#797979"/>
    <path d="M343.65 18.242H346.875C347.312 18.242 347.526 18.0252 347.526 17.5509V15.0645C347.526 14.6377 347.349 14.4175 346.987 14.3803V13.5266C346.987 12.2496 346.15 11.633 345.263 11.633C344.375 11.633 343.539 12.2496 343.539 13.5266V14.3972C343.207 14.448 343 14.6648 343 15.0645V17.5509C343 18.0252 343.213 18.242 343.65 18.242ZM344.084 13.4555C344.084 12.6052 344.629 12.1547 345.263 12.1547C345.896 12.1547 346.442 12.6052 346.442 13.4555V14.3769L344.084 14.3803V13.4555Z" fill="#9E9E9E"/>
    <path d="M353.02 18V12.5341H353.845V17.2901H356.321V18H353.02ZM358.935 18.0827C358.531 18.0827 358.183 17.9964 357.891 17.8239C357.601 17.6495 357.377 17.4048 357.219 17.0899C357.062 16.7732 356.984 16.4022 356.984 15.977C356.984 15.5571 357.062 15.187 357.219 14.8667C357.377 14.5464 357.598 14.2965 357.881 14.1167C358.165 13.937 358.498 13.8472 358.879 13.8472C359.11 13.8472 359.334 13.8854 359.551 13.962C359.768 14.0385 359.963 14.1586 360.136 14.3223C360.308 14.4859 360.445 14.6986 360.544 14.9601C360.644 15.2199 360.694 15.5357 360.694 15.9076V16.1905H357.435V15.5927H359.912C359.912 15.3827 359.869 15.1968 359.784 15.0349C359.698 14.8712 359.578 14.7422 359.423 14.6479C359.27 14.5536 359.091 14.5064 358.884 14.5064C358.66 14.5064 358.464 14.5616 358.297 14.6719C358.132 14.7804 358.003 14.9228 357.913 15.0989C357.824 15.2733 357.779 15.4628 357.779 15.6674V16.1344C357.779 16.4084 357.827 16.6415 357.923 16.8337C358.021 17.0259 358.157 17.1726 358.332 17.2741C358.506 17.3737 358.71 17.4235 358.943 17.4235C359.094 17.4235 359.232 17.4022 359.357 17.3595C359.481 17.315 359.589 17.2491 359.679 17.162C359.77 17.0748 359.84 16.9671 359.888 16.839L360.643 16.9751C360.582 17.1976 360.474 17.3924 360.317 17.5596C360.163 17.7251 359.968 17.8541 359.733 17.9466C359.5 18.0374 359.234 18.0827 358.935 18.0827ZM362.742 18.0907C362.482 18.0907 362.247 18.0427 362.037 17.9466C361.827 17.8488 361.661 17.7073 361.538 17.5223C361.417 17.3372 361.357 17.1104 361.357 16.8417C361.357 16.6104 361.401 16.42 361.49 16.2706C361.579 16.1211 361.699 16.0028 361.851 15.9156C362.002 15.8284 362.171 15.7626 362.358 15.7181C362.545 15.6736 362.735 15.6398 362.929 15.6167C363.174 15.5882 363.374 15.5651 363.527 15.5473C363.68 15.5277 363.791 15.4966 363.86 15.4539C363.93 15.4112 363.964 15.3418 363.964 15.2457V15.227C363.964 14.9939 363.899 14.8133 363.767 14.6852C363.637 14.5571 363.443 14.4931 363.185 14.4931C362.916 14.4931 362.705 14.5527 362.55 14.6719C362.397 14.7893 362.291 14.9201 362.232 15.0642L361.482 14.8934C361.571 14.6443 361.701 14.4432 361.872 14.2902C362.045 14.1354 362.243 14.0233 362.467 13.9539C362.691 13.8828 362.927 13.8472 363.174 13.8472C363.338 13.8472 363.512 13.8668 363.695 13.9059C363.88 13.9433 364.052 14.0127 364.213 14.1141C364.374 14.2155 364.507 14.3605 364.61 14.5491C364.713 14.7359 364.765 14.9788 364.765 15.2777V18H363.986V17.4395H363.954C363.902 17.5427 363.825 17.6441 363.721 17.7438C363.618 17.8434 363.486 17.9262 363.324 17.992C363.162 18.0578 362.968 18.0907 362.742 18.0907ZM362.915 17.4502C363.136 17.4502 363.325 17.4066 363.481 17.3194C363.64 17.2322 363.76 17.1184 363.842 16.9778C363.925 16.8355 363.967 16.6833 363.967 16.5214V15.993C363.939 16.0215 363.883 16.0481 363.802 16.0731C363.721 16.0962 363.63 16.1166 363.527 16.1344C363.423 16.1505 363.323 16.1656 363.225 16.1798C363.127 16.1923 363.045 16.2029 362.98 16.2118C362.825 16.2314 362.683 16.2643 362.555 16.3106C362.429 16.3568 362.327 16.4236 362.251 16.5108C362.176 16.5962 362.139 16.71 362.139 16.8524C362.139 17.0499 362.212 17.1993 362.358 17.3007C362.504 17.4004 362.69 17.4502 362.915 17.4502ZM367.332 18.0801C367.002 18.0801 366.706 17.9956 366.446 17.8265C366.188 17.6557 365.986 17.4128 365.838 17.0979C365.692 16.7812 365.619 16.4013 365.619 15.9583C365.619 15.5153 365.693 15.1363 365.841 14.8213C365.99 14.5064 366.195 14.2653 366.454 14.0981C366.714 13.9308 367.009 13.8472 367.338 13.8472C367.592 13.8472 367.797 13.8899 367.952 13.9753C368.108 14.0589 368.229 14.1568 368.315 14.2689C368.402 14.381 368.469 14.4797 368.517 14.5651H368.566V12.5341H369.364V18H368.584V17.3621H368.517C368.469 17.4493 368.4 17.549 368.309 17.661C368.22 17.7731 368.098 17.871 367.941 17.9546C367.784 18.0383 367.582 18.0801 367.332 18.0801ZM367.509 17.3995C367.738 17.3995 367.932 17.339 368.09 17.218C368.251 17.0952 368.372 16.9253 368.453 16.7083C368.537 16.4912 368.579 16.2385 368.579 15.9503C368.579 15.6656 368.538 15.4165 368.456 15.203C368.374 14.9895 368.254 14.8231 368.096 14.7039C367.937 14.5847 367.742 14.5251 367.509 14.5251C367.268 14.5251 367.068 14.5874 366.908 14.7119C366.748 14.8365 366.627 15.0064 366.545 15.2217C366.465 15.437 366.425 15.6798 366.425 15.9503C366.425 16.2243 366.466 16.4707 366.548 16.6896C366.63 16.9084 366.751 17.0819 366.911 17.21C367.073 17.3363 367.272 17.3995 367.509 17.3995ZM374.345 13.9006V14.5411H372.106V13.9006H374.345ZM372.706 12.9184H373.504V16.7963C373.504 16.9511 373.527 17.0677 373.574 17.146C373.62 17.2225 373.679 17.2749 373.752 17.3034C373.827 17.3301 373.908 17.3435 373.995 17.3435C374.059 17.3435 374.115 17.339 374.163 17.3301C374.211 17.3212 374.249 17.3141 374.276 17.3088L374.42 17.968C374.373 17.9858 374.308 18.0036 374.222 18.0214C374.137 18.0409 374.03 18.0516 373.902 18.0534C373.692 18.0569 373.496 18.0196 373.315 17.9413C373.133 17.863 372.986 17.742 372.874 17.5783C372.762 17.4146 372.706 17.2091 372.706 16.9618V12.9184ZM375.198 18V13.9006H375.969V14.5518H376.012C376.086 14.3312 376.218 14.1577 376.407 14.0313C376.597 13.9032 376.812 13.8392 377.052 13.8392C377.102 13.8392 377.161 13.841 377.229 13.8445C377.298 13.8481 377.352 13.8525 377.391 13.8579V14.6212C377.359 14.6123 377.302 14.6025 377.221 14.5918C377.139 14.5794 377.057 14.5731 376.975 14.5731C376.786 14.5731 376.618 14.6132 376.471 14.6932C376.325 14.7715 376.209 14.8809 376.124 15.0215C376.038 15.1603 375.996 15.3186 375.996 15.4966V18H375.198ZM379.208 18.0907C378.948 18.0907 378.714 18.0427 378.504 17.9466C378.294 17.8488 378.127 17.7073 378.005 17.5223C377.884 17.3372 377.823 17.1104 377.823 16.8417C377.823 16.6104 377.868 16.42 377.957 16.2706C378.046 16.1211 378.166 16.0028 378.317 15.9156C378.468 15.8284 378.637 15.7626 378.824 15.7181C379.011 15.6736 379.201 15.6398 379.395 15.6167C379.641 15.5882 379.84 15.5651 379.993 15.5473C380.146 15.5277 380.257 15.4966 380.327 15.4539C380.396 15.4112 380.431 15.3418 380.431 15.2457V15.227C380.431 14.9939 380.365 14.8133 380.233 14.6852C380.103 14.5571 379.909 14.4931 379.651 14.4931C379.383 14.4931 379.171 14.5527 379.016 14.6719C378.863 14.7893 378.757 14.9201 378.699 15.0642L377.949 14.8934C378.038 14.6443 378.167 14.4432 378.338 14.2902C378.511 14.1354 378.709 14.0233 378.933 13.9539C379.158 13.8828 379.393 13.8472 379.641 13.8472C379.804 13.8472 379.978 13.8668 380.161 13.9059C380.346 13.9433 380.519 14.0127 380.679 14.1141C380.841 14.2155 380.973 14.3605 381.076 14.5491C381.18 14.7359 381.231 14.9788 381.231 15.2777V18H380.452V17.4395H380.42C380.368 17.5427 380.291 17.6441 380.188 17.7438C380.085 17.8434 379.952 17.9262 379.79 17.992C379.628 18.0578 379.434 18.0907 379.208 18.0907ZM379.382 17.4502C379.602 17.4502 379.791 17.4066 379.948 17.3194C380.106 17.2322 380.226 17.1184 380.308 16.9778C380.391 16.8355 380.433 16.6833 380.433 16.5214V15.993C380.405 16.0215 380.35 16.0481 380.268 16.0731C380.188 16.0962 380.096 16.1166 379.993 16.1344C379.89 16.1505 379.789 16.1656 379.691 16.1798C379.593 16.1923 379.512 16.2029 379.446 16.2118C379.291 16.2314 379.15 16.2643 379.021 16.3106C378.895 16.3568 378.794 16.4236 378.717 16.5108C378.642 16.5962 378.605 16.71 378.605 16.8524C378.605 17.0499 378.678 17.1993 378.824 17.3007C378.97 17.4004 379.156 17.4502 379.382 17.4502ZM383.991 18.0827C383.594 18.0827 383.253 17.9929 382.966 17.8132C382.681 17.6317 382.463 17.3817 382.309 17.0632C382.156 16.7447 382.08 16.38 382.08 15.969C382.08 15.5526 382.158 15.1852 382.315 14.8667C382.471 14.5464 382.692 14.2965 382.977 14.1167C383.261 13.937 383.597 13.8472 383.983 13.8472C384.294 13.8472 384.572 13.905 384.816 14.0207C385.059 14.1345 385.256 14.2947 385.405 14.5011C385.557 14.7075 385.647 14.9486 385.675 15.2243H384.898C384.856 15.0322 384.758 14.8667 384.605 14.7279C384.454 14.5891 384.251 14.5198 383.996 14.5198C383.774 14.5198 383.579 14.5785 383.412 14.6959C383.246 14.8116 383.117 14.977 383.025 15.1923C382.932 15.4058 382.886 15.6585 382.886 15.9503C382.886 16.2492 382.931 16.5072 383.022 16.7243C383.113 16.9413 383.241 17.1095 383.406 17.2287C383.574 17.3479 383.77 17.4075 383.996 17.4075C384.147 17.4075 384.284 17.3799 384.407 17.3248C384.532 17.2678 384.636 17.1869 384.72 17.0819C384.805 16.9769 384.865 16.8506 384.898 16.7029H385.675C385.647 16.968 385.56 17.2047 385.416 17.4128C385.272 17.621 385.079 17.7847 384.837 17.9039C384.597 18.0231 384.315 18.0827 383.991 18.0827ZM387.232 16.6095L387.227 15.6354H387.366L388.999 13.9006H389.955L388.092 15.8756H387.966L387.232 16.6095ZM386.498 18V12.5341H387.296V18H386.498ZM389.087 18L387.619 16.0517L388.169 15.4939L390.067 18H389.087ZM392.25 18.0827C391.846 18.0827 391.498 17.9964 391.206 17.8239C390.916 17.6495 390.692 17.4048 390.534 17.0899C390.377 16.7732 390.299 16.4022 390.299 15.977C390.299 15.5571 390.377 15.187 390.534 14.8667C390.692 14.5464 390.913 14.2965 391.196 14.1167C391.48 13.937 391.813 13.8472 392.194 13.8472C392.425 13.8472 392.649 13.8854 392.866 13.962C393.083 14.0385 393.278 14.1586 393.451 14.3223C393.623 14.4859 393.759 14.6986 393.859 14.9601C393.959 15.2199 394.009 15.5357 394.009 15.9076V16.1905H390.75V15.5927H393.227C393.227 15.3827 393.184 15.1968 393.098 15.0349C393.013 14.8712 392.893 14.7422 392.738 14.6479C392.585 14.5536 392.405 14.5064 392.199 14.5064C391.975 14.5064 391.779 14.5616 391.612 14.6719C391.446 14.7804 391.318 14.9228 391.228 15.0989C391.139 15.2733 391.094 15.4628 391.094 15.6674V16.1344C391.094 16.4084 391.142 16.6415 391.238 16.8337C391.336 17.0259 391.472 17.1726 391.647 17.2741C391.821 17.3737 392.025 17.4235 392.258 17.4235C392.409 17.4235 392.547 17.4022 392.671 17.3595C392.796 17.315 392.904 17.2491 392.994 17.162C393.085 17.0748 393.154 16.9671 393.203 16.839L393.958 16.9751C393.897 17.1976 393.789 17.3924 393.632 17.5596C393.477 17.7251 393.283 17.8541 393.048 17.9466C392.815 18.0374 392.549 18.0827 392.25 18.0827ZM394.864 18V13.9006H395.635V14.5518H395.678C395.753 14.3312 395.884 14.1577 396.073 14.0313C396.263 13.9032 396.479 13.8392 396.719 13.8392C396.769 13.8392 396.827 13.841 396.895 13.8445C396.964 13.8481 397.019 13.8525 397.058 13.8579V14.6212C397.026 14.6123 396.969 14.6025 396.887 14.5918C396.805 14.5794 396.723 14.5731 396.641 14.5731C396.453 14.5731 396.285 14.6132 396.137 14.6932C395.991 14.7715 395.875 14.8809 395.79 15.0215C395.705 15.1603 395.662 15.3186 395.662 15.4966V18H394.864Z" fill="#4C4C4C"/>
    </g>
    </g>
    <defs>
    <filter id="filter0_di_1_198" x="0" y="0" width="650" height="31.2891" filterUnits="userSpaceOnUse" color-interpolation-filters="sRGB">
    <feFlood flood-opacity="0" result="BackgroundImageFix"/>
    <feColorMatrix in="SourceAlpha" type="matrix" values="0 0 0 0 0 0 0 0 0 0 0 0 0 0 0 0 0 0 127 0" result="hardAlpha"/>
    <feOffset dy="0.289062"/>
    <feColorMatrix type="matrix" values="0 0 0 0 0 0 0 0 0 0 0 0 0 0 0 0 0 0 0.15 0"/>
    <feBlend mode="normal" in2="BackgroundImageFix" result="effect1_dropShadow_1_198"/>
    <feBlend mode="normal" in="SourceGraphic" in2="effect1_dropShadow_1_198" result="shape"/>
    <feColorMatrix in="SourceAlpha" type="matrix" values="0 0 0 0 0 0 0 0 0 0 0 0 0 0 0 0 0 0 127 0" result="hardAlpha"/>
    <feOffset dy="-0.289062"/>
    <feComposite in2="hardAlpha" operator="arithmetic" k2="-1" k3="1"/>
    <feColorMatrix type="matrix" values="0 0 0 0 0 0 0 0 0 0 0 0 0 0 0 0 0 0 0.05 0"/>
    <feBlend mode="normal" in2="shape" result="effect2_innerShadow_1_198"/>
    </filter>
    <filter id="filter1_i_1_198" x="12.1406" y="11.5625" width="6.9375" height="6.9375" filterUnits="userSpaceOnUse" color-interpolation-filters="sRGB">
    <feFlood flood-opacity="0" result="BackgroundImageFix"/>
    <feBlend mode="normal" in="SourceGraphic" in2="BackgroundImageFix" result="shape"/>
    <feColorMatrix in="SourceAlpha" type="matrix" values="0 0 0 0 0 0 0 0 0 0 0 0 0 0 0 0 0 0 127 0" result="hardAlpha"/>
    <feOffset/>
    <feGaussianBlur stdDeviation="1.73438"/>
    <feComposite in2="hardAlpha" operator="arithmetic" k2="-1" k3="1"/>
    <feColorMatrix type="matrix" values="0 0 0 0 0.92549 0 0 0 0 0.427451 0 0 0 0 0.384314 0 0 0 1 0"/>
    <feBlend mode="normal" in2="shape" result="effect1_innerShadow_1_198"/>
    </filter>
    <filter id="filter2_i_1_198" x="23.7031" y="11.5625" width="6.9375" height="6.9375" filterUnits="userSpaceOnUse" color-interpolation-filters="sRGB">
    <feFlood flood-opacity="0" result="BackgroundImageFix"/>
    <feBlend mode="normal" in="SourceGraphic" in2="BackgroundImageFix" result="shape"/>
    <feColorMatrix in="SourceAlpha" type="matrix" values="0 0 0 0 0 0 0 0 0 0 0 0 0 0 0 0 0 0 127 0" result="hardAlpha"/>
    <feOffset/>
    <feGaussianBlur stdDeviation="1.73438"/>
    <feComposite in2="hardAlpha" operator="arithmetic" k2="-1" k3="1"/>
    <feColorMatrix type="matrix" values="0 0 0 0 0.960784 0 0 0 0 0.768627 0 0 0 0 0.317647 0 0 0 1 0"/>
    <feBlend mode="normal" in2="shape" result="effect1_innerShadow_1_198"/>
    </filter>
    <filter id="filter3_i_1_198" x="35.2656" y="11.5625" width="6.9375" height="6.9375" filterUnits="userSpaceOnUse" color-interpolation-filters="sRGB">
    <feFlood flood-opacity="0" result="BackgroundImageFix"/>
    <feBlend mode="normal" in="SourceGraphic" in2="BackgroundImageFix" result="shape"/>
    <feColorMatrix in="SourceAlpha" type="matrix" values="0 0 0 0 0 0 0 0 0 0 0 0 0 0 0 0 0 0 127 0" result="hardAlpha"/>
    <feOffset/>
    <feGaussianBlur stdDeviation="1.73438"/>
    <feComposite in2="hardAlpha" operator="arithmetic" k2="-1" k3="1"/>
    <feColorMatrix type="matrix" values="0 0 0 0 0.407843 0 0 0 0 0.8 0 0 0 0 0.345098 0 0 0 1 0"/>
    <feBlend mode="normal" in2="shape" result="effect1_innerShadow_1_198"/>
    </filter>
    <clipPath id="clip0_1_198">
    <rect width="38.1562" height="16.1875" fill="white" transform="translate(77.4688 6.9375)"/>
    </clipPath>
    <clipPath id="clip1_1_198">
    <rect width="346.875" height="16.1875" fill="white" transform="translate(196.562 6.9375)"/>
    </clipPath>
    </defs>
    </svg>
    